<?xml version="1.0" standalone="no"?><!DOCTYPE svg PUBLIC "-//W3C//DTD SVG 1.1//EN" "http://www.w3.org/Graphics/SVG/1.1/DTD/svg11.dtd"><svg t="1612194772071" class="icon" viewBox="0 0 1024 1024" version="1.1" xmlns="http://www.w3.org/2000/svg" p-id="2481" xmlns:xlink="http://www.w3.org/1999/xlink" width="25" height="25"><defs><style type="text/css"></style></defs><path d="M82.773333 992.426667c0-162.986667 174.933333-294.4 391.68-294.4s391.68 132.266667 391.68 294.4H82.773333z" fill="#B3D3EF" p-id="2482"></path><path d="M381.44 619.52h186.026667v168.106667H381.44z" fill="#ECF1F2" p-id="2483"></path><path d="M474.453333 702.293333c33.28 0 64.853333-11.946667 93.013334-31.573333v-51.2c-27.306667 20.48-58.88 31.573333-93.013334 31.573333s-64.853333-11.946667-93.013333-31.573333v51.2c27.306667 20.48 58.88 31.573333 93.013333 31.573333z" fill="#C7CAC7" p-id="2484"></path><path d="M524.834133 823.5264l-50.688 50.688-50.688-50.688 50.688-50.688z" fill="#48A0DB" p-id="2485"></path><path d="M516.266667 992.426667h-82.773334l24.746667-133.12h34.133333z" fill="#48A0DB" p-id="2486"></path><path d="M353.28 665.6l-70.826667 70.826667 113.493334 113.493333 80.213333-75.946667z" fill="#B3D3EF" p-id="2487"></path><path d="M594.773333 665.6l70.826667 70.826667-113.493333 113.493333-80.213334-75.946667z" fill="#B3D3EF" p-id="2488"></path><path d="M224.619346 390.28556a68.266667 39.253333 71.761 1 0 74.562432-24.571132 68.266667 39.253333 71.761 1 0-74.562432 24.571132Z" fill="#ECF1F2" p-id="2489"></path><path d="M664.545495 443.108761a39.253333 68.266667 18.239 1 0 42.732403-129.673793 39.253333 68.266667 18.239 1 0-42.732403 129.673793Z" fill="#ECF1F2" p-id="2490"></path><path d="M274.773333 372.906667a279.04 199.68 90 1 0 399.36 0 279.04 199.68 90 1 0-399.36 0Z" fill="#FFFFFF" p-id="2491"></path><path d="M675.84 370.346667c-4.266667-59.733333-14.506667-86.186667-49.493333-135.68-40.106667-57.173333-72.533333-21.333333-120.32 14.506666-60.586667 46.08-125.44-5.973333-163.84-9.386666-36.693333-3.413333-29.866667 21.333333-66.56 130.56 0 14.506667 0.853333 29.866667 2.56 43.52 33.28-102.4 28.16-126.293333 64-122.88 38.4 3.413333 103.253333 55.466667 163.84 9.386666 47.786667-35.84 80.213333-71.68 120.32-14.506666 31.573333 44.373333 42.666667 70.826667 47.786666 119.466666 0.853333-11.946667 1.706667-23.893333 1.706667-34.986666z" fill="#C7CAC7" p-id="2492"></path><path d="M578.56 70.826667C471.893333-32.426667 150.186667 69.12 273.92 372.906667c36.693333-109.226667 29.866667-133.973333 66.56-130.56 38.4 3.413333 103.253333 55.466667 163.84 9.386666 47.786667-35.84 80.213333-71.68 120.32-14.506666 34.986667 49.493333 44.373333 75.946667 49.493333 135.68 56.32-52.053333 65.706667-279.04-95.573333-302.08z" fill="#424B61" p-id="2493"></path><path d="M751.786667 1006.933333s181.76-120.32 204.8-181.76C998.4 717.653333 989.866667 563.2 989.866667 563.2c0-32.426667-213.333333-119.466667-238.08-119.466667-24.746667 0-238.08 87.04-238.08 119.466667 0 0-8.533333 154.453333 33.28 262.826667 23.04 60.586667 204.8 180.906667 204.8 180.906666z" fill="#FFFFFF" p-id="2494"></path><path d="M751.786667 945.493333c-78.506667-55.466667-149.333333-116.906667-157.013334-138.24-30.72-77.653333-31.573333-186.88-30.72-226.986666 34.986667-24.746667 151.04-75.093333 187.733334-84.48 36.693333 9.386667 152.746667 59.733333 187.733333 84.48 0.853333 39.253333 0 148.48-29.866667 226.133333-9.386667 22.186667-79.36 83.626667-157.866666 139.093333z" fill="#2CB89C" p-id="2495"></path><path d="M751.786667 555.52c35.84 9.386667 151.04 58.88 186.88 83.626667 0.853333-24.746667 0.853333-46.08 0.853333-58.88-34.986667-24.746667-151.04-75.093333-187.733333-84.48-36.693333 9.386667-152.746667 59.733333-187.733334 84.48 0 12.8 0 34.133333 0.853334 58.88 35.84-24.746667 150.186667-74.24 186.88-83.626667z" fill="#1E816E" p-id="2496"></path><path d="M743.253333 803.84L637.44 709.12l34.986667-37.546667 68.266666 61.44 108.373334-112.64 36.693333 35.84z" fill="#FFFFFF" p-id="2497"></path><path d="M998.4 563.2c0-7.68 0-26.453333-114.346667-79.36-51.2-23.04-116.906667-48.64-132.266666-48.64-10.24 0-43.52 11.093333-79.36 25.6 0.853333-2.56 1.706667-5.973333 1.706666-8.533333 22.186667-0.853333 46.08-24.746667 58.026667-58.88 12.8-38.4 5.12-75.093333-17.92-86.186667 8.533333-40.106667 7.68-87.893333-5.12-128.853333-19.626667-64.853333-64.853333-105.813333-127.146667-115.2-57.173333-54.613333-169.813333-53.76-250.88 1.706666-39.253333 26.453333-116.906667 98.133333-87.04 239.786667-1.706667 0-4.266667 0.853333-5.973333 1.706667-25.6 8.533333-34.986667 46.933333-21.333333 87.893333 11.093333 34.986667 34.986667 58.026667 58.026666 58.88 15.36 73.386667 51.2 133.973333 98.986667 170.666667v47.786666l-13.653333-11.946666c-3.413333-3.413333-8.533333-2.56-11.946667 0l-68.266667 68.266666c-122.026667 52.053333-204.8 151.04-204.8 264.533334 0 5.12 3.413333 8.533333 8.533334 8.533333H728.746667c11.093333 7.68 18.773333 12.8 19.626666 13.653333 1.706667 0.853333 3.413333 1.706667 5.12 1.706667s3.413333-0.853333 5.12-1.706667c1.706667-0.853333 11.093333-7.68 25.6-17.066666-1.706667 1.706667-3.413333 2.56-5.12 4.266666h89.6c5.12 0 8.533333-3.413333 8.533334-8.533333 0-20.48-2.56-40.106667-7.68-58.88 44.373333-35.84 87.04-75.946667 98.133333-104.96 38.4-109.226667 30.72-260.266667 30.72-266.24zM709.973333 325.12c10.24 9.386667 15.36 34.133333 5.973334 63.146667-8.533333 26.453333-24.746667 42.666667-38.4 46.933333 3.413333-18.773333 5.12-38.4 5.12-58.88 11.946667-11.946667 21.333333-30.72 27.306666-51.2z m-477.013333 63.146667c-11.093333-33.28-3.413333-61.44 11.093333-66.56 1.706667-0.853333 2.56-0.853333 4.266667-0.853334 4.266667 17.066667 10.24 34.133333 17.92 52.906667 0 20.48 1.706667 40.96 5.12 60.586667-13.653333-3.413333-29.866667-20.48-38.4-46.08z m43.52-49.493334l-2.56 7.68-5.12-15.36c0-0.853333 0-0.853333-0.853333-1.706666-2.56-7.68-4.266667-15.36-5.973334-23.04-30.72-135.68 41.813333-203.093333 78.506667-227.84 75.093333-50.346667 180.906667-51.2 232.106667-1.706667 1.706667 0.853333 2.56 1.706667 5.12 2.56 72.533333 10.24 103.253333 62.293333 116.053333 104.106667 12.8 40.96 12.8 85.333333 5.12 121.173333-1.706667 6.826667-3.413333 12.8-5.12 18.773333-3.413333 9.386667-6.826667 18.773333-11.093333 25.6 0 0.853333-0.853333 1.706667-0.853334 2.56l-2.56-17.92c-0.853333-6.826667-2.56-12.8-4.266666-18.773333-5.973333-21.333333-14.506667-40.106667-28.16-62.293333-4.266667-5.973333-8.533333-12.8-13.653334-19.626667-13.653333-19.626667-28.16-30.72-43.52-33.28-2.56 0-4.266667-0.853333-6.826666-0.853333-22.186667 0-43.52 16.213333-67.413334 34.986666-4.266667 3.413333-9.386667 7.68-14.506666 11.093334-40.106667 29.866667-81.066667 14.506667-116.906667 0.853333-14.506667-5.12-28.16-11.093333-40.106667-11.946667-23.04-1.706667-32.426667 5.973333-40.96 25.6-4.266667 10.24-7.68 23.04-12.8 40.106667-1.706667 5.973333-3.413333 12.8-5.973333 20.48-4.266667 5.973333-5.973333 11.946667-7.68 18.773333z m14.506667 110.08c-1.706667-5.973333-2.56-11.946667-3.413334-18.773333-2.56-17.92-4.266667-37.546667-4.266666-56.32l5.12-15.36c2.56-8.533333 5.12-16.213333 6.826666-23.04 3.413333-11.946667 6.826667-22.186667 9.386667-31.573333 14.506667-52.053333 17.066667-55.466667 35.84-53.76 9.386667 0.853333 22.186667 5.973333 35.84 11.093333 36.693333 13.653333 86.186667 32.426667 133.973333-3.413333 5.12-3.413333 10.24-7.68 14.506667-11.093334 23.893333-17.92 43.52-34.133333 61.44-31.573333 11.093333 1.706667 21.333333 10.24 32.426667 25.6 23.893333 34.133333 34.986667 56.32 41.813333 86.186667 1.706667 7.68 2.56 16.213333 4.266667 25.6 0.853333 5.973333 1.706667 12.8 1.706666 19.626666 0 19.626667-1.706667 39.253333-4.266666 57.173334-0.853333 5.973333-1.706667 12.8-3.413334 18.773333l-5.12 20.48c-11.093333 5.12-23.04 9.386667-33.28 14.506667-114.346667 52.053333-114.346667 71.68-114.346666 78.506666 0 2.56-1.706667 34.133333 0 76.8-10.24 2.56-20.48 3.413333-30.72 3.413334-22.186667 0-42.666667-5.12-62.293334-14.506667-9.386667-4.266667-18.773333-10.24-27.306666-17.066667-46.08-33.28-80.213333-91.306667-94.72-161.28z m183.466666 338.773334l8.533334 8.533333 29.866666 28.16-25.6 25.6h-24.746666l-25.6-25.6 29.866666-28.16 7.68-8.533333z m-58.026666-78.506667l-17.066667-15.36-9.386667-8.533333v-51.2c25.6 16.213333 54.613333 24.746667 84.48 24.746666 11.093333 0 21.333333-0.853333 31.573334-3.413333 1.706667 21.333333 3.413333 46.08 6.826666 69.973333l-38.4 34.133334-58.026666-50.346667z m69.973333 64l29.866667-26.453333c5.12 26.453333 11.093333 52.906667 20.48 77.653333l-5.12-5.12-0.853334-0.853333-44.373333-45.226667z m-168.106667-59.733333l35.84-35.84 18.773334 17.066666 5.12 4.266667 11.946666 11.093333 4.266667 3.413334 68.266667 60.586666-45.226667 45.226667-0.853333 0.853333-20.48 19.626667-98.986667-100.693333-2.56-2.56 23.893333-23.04zM426.666667 983.893333H91.306667c4.266667-101.546667 78.506667-189.44 188.586666-238.08l110.933334 110.933334c1.706667 1.706667 4.266667 2.56 5.973333 2.56 1.706667 0 4.266667-0.853333 5.973333-2.56l21.333334-20.48 25.6 25.6-23.04 122.026666z m17.92 0l19.626666-107.52 1.706667-9.386666h19.626667l1.706666 6.826666 19.626667 109.226667h-62.293333z m56.32-123.733333l23.893333-23.893333 21.333333 20.48c1.706667 1.706667 3.413333 2.56 5.973334 2.56 1.706667 0 3.413333-0.853333 4.266666-1.706667 34.133333 41.813333 101.546667 93.866667 145.92 126.293333h-179.2l-22.186666-123.733333z m40.96-25.6c0 0.853333 0.853333 0.853333 0.853333 1.706667-0.853333-0.853333-0.853333-0.853333-0.853333-1.706667z m3.413333 7.68s0 0.853333 0.853333 0.853333c0-0.853333 0-0.853333-0.853333-0.853333z m5.12 7.68s0.853333 0 0 0c0.853333 0 0 0 0 0z m171.52 147.626667z m135.68-13.653334h-57.173333c15.36-11.093333 33.28-24.746667 52.053333-39.253333 2.56 12.8 4.266667 25.6 5.12 39.253333z m-70.826667 9.386667z m6.826667-4.266667z m155.306667-167.253333c-20.48 52.906667-168.96 155.306667-197.12 174.933333-28.16-19.626667-176.64-122.026667-197.12-174.933333-40.106667-104.96-32.426667-257.706667-32.426667-259.413333 0.853333-5.973333 24.746667-27.306667 106.666667-64.853334C690.346667 470.186667 742.4 452.266667 751.786667 452.266667s61.44 17.92 122.88 46.08c82.773333 37.546667 105.813333 58.88 106.666666 64.853333 0 1.706667 7.68 154.453333-32.426666 258.56z" p-id="2498"></path><path d="M855.04 614.4c-3.413333-3.413333-8.533333-3.413333-11.946667 0l-102.4 106.666667-62.293333-56.32c-1.706667-1.706667-4.266667-2.56-5.973333-2.56-2.56 0-4.266667 0.853333-5.973334 2.56l-34.133333 38.4c-1.706667 1.706667-2.56 4.266667-2.56 5.973333 0 2.56 0.853333 4.266667 2.56 5.973333L737.28 810.666667c1.706667 1.706667 3.413333 2.56 5.973333 2.56 2.56 0 4.266667-0.853333 5.973334-2.56l142.506666-147.626667c3.413333-3.413333 3.413333-8.533333 0-11.946667l-36.693333-36.693333zM742.4 792.746667l-92.16-83.626667 23.04-25.6 62.293333 56.32c3.413333 3.413333 8.533333 2.56 11.946667 0l102.4-105.813333 24.746667 23.893333L742.4 792.746667z" p-id="2499"></path><path d="M943.786667 573.44c-36.693333-26.453333-154.453333-76.8-190.293334-86.186667h-4.266666c-36.693333 9.386667-154.453333 59.733333-190.293334 86.186667-2.56 1.706667-3.413333 4.266667-3.413333 6.826667-0.853333 42.666667 0.853333 151.04 30.72 229.546666 10.24 26.453333 88.746667 92.16 160.426667 142.506667 1.706667 0.853333 3.413333 1.706667 5.12 1.706667s3.413333-0.853333 5.12-1.706667c71.68-50.346667 150.186667-115.2 160.426666-142.506667 29.866667-78.506667 31.573333-186.88 30.72-229.546666 0-2.56-1.706667-5.12-4.266666-6.826667z m-42.666667 230.4c-6.826667 17.066667-65.706667 71.68-149.333333 131.413333-84.48-59.733333-142.506667-114.346667-149.333334-131.413333-28.16-73.386667-30.72-174.08-29.866666-218.453333 37.546667-24.746667 143.36-70.826667 179.2-80.213334 35.84 9.386667 141.653333 55.466667 179.2 80.213334 0 44.373333-1.706667 145.066667-29.866667 218.453333z" p-id="2500"></path></svg>