<?xml version="1.0" standalone="no"?><!DOCTYPE svg PUBLIC "-//W3C//DTD SVG 1.1//EN" "http://www.w3.org/Graphics/SVG/1.1/DTD/svg11.dtd"><svg t="1612194647351" class="icon" viewBox="0 0 1024 1024" version="1.1" xmlns="http://www.w3.org/2000/svg" p-id="1325" xmlns:xlink="http://www.w3.org/1999/xlink" width="25" height="25"><defs><style type="text/css"></style></defs><path d="M628.053333 501.76l188.586667-412.16H593.92l-80.213333 169.813333-81.066667-169.813333H209.92l188.586667 412.16-5.973334 11.946667 13.653334 4.266666 28.16 62.293334 79.36-26.453334 78.506666 26.453334 28.16-62.293334 13.653334-4.266666z" fill="#B3D3EF" p-id="1326"></path><path d="M690.346667 357.546667l-75.946667 1.706666-56.32-53.76-68.266667 34.133334-74.24-23.04-46.08 60.586666-32.426666 4.266667 23.893333 51.2 8.533333-1.706667 46.08-60.586666 74.24 23.04 68.266667-33.28 56.32 52.906666 54.613333-0.853333 23.04-49.493333z" fill="#6898BC" p-id="1327"></path><path d="M789.333333 510.293333l-5.12 75.946667 47.786667 59.733333-38.4 65.706667 16.213333 74.24-61.44 42.666667-17.066666 75.093333-76.8 10.24-46.08 61.44-74.24-23.893333-68.266667 34.133333-56.32-52.906667-75.946667 0.853334-27.306666-70.826667-69.12-34.133333 5.12-76.8-47.786667-58.88 39.253333-66.56-17.066666-73.386667 62.293333-42.666667 17.066667-75.946666 75.946666-10.24 46.933334-60.586667 73.386666 23.04 69.12-33.28 55.466667 52.906667 76.8-1.706667 27.306667 71.68z" fill="#EFCF48" p-id="1328"></path><path d="M513.706667 808.96l-2.56-1.706667c-95.573333-36.693333-106.666667-85.333333-106.666667-117.76V563.2h9.386667c65.706667 2.56 94.72-27.306667 94.72-28.16l6.826666-6.826667 6.826667 6.826667S549.546667 563.2 610.133333 563.2H626.346667v125.44c0 33.28-11.946667 81.92-106.666667 117.76l-5.973333 2.56z" fill="#FFFFFF" p-id="1329"></path><path d="M838.826667 640.853333l-46.08-57.173333 5.12-73.386667c0-3.413333-1.706667-6.826667-5.12-8.533333L727.04 469.333333l-25.6-68.266666c-0.853333-3.413333-4.266667-5.12-7.68-5.12h-7.68l139.093333-302.933334c0.853333-2.56 0.853333-5.973333-0.853333-8.533333-1.706667-2.56-4.266667-4.266667-6.826667-4.266667H593.92c-3.413333 0-5.973333 1.706667-7.68 5.12l-72.533333 153.6-72.533334-153.6c-1.706667-2.56-4.266667-5.12-7.68-5.12H209.92c-2.56 0-5.973333 1.706667-6.826667 4.266667-1.706667 2.56-1.706667 5.12-0.853333 8.533333L351.573333 418.133333l16.213334-2.56-73.386667 11.093334c-3.413333 0.853333-6.826667 3.413333-6.826667 6.826666l-16.213333 71.68-59.733333 40.96c-2.56 1.706667-4.266667 5.12-3.413334 8.533334l16.213334 70.826666-36.693334 63.146667c-1.706667 3.413333-1.706667 6.826667 0.853334 9.386667l46.08 57.173333-5.973334 72.533333c0 3.413333 1.706667 6.826667 5.12 8.533334l65.706667 32.426666 25.6 68.266667c1.706667 3.413333 5.12 5.12 8.533333 5.12l72.533334-0.853333 52.906666 50.346666c1.706667 1.706667 3.413333 2.56 5.973334 2.56 0.853333 0 2.56 0 3.413333-0.853333l65.706667-32.426667 70.826666 22.186667c3.413333 0.853333 6.826667 0 9.386667-2.56l44.373333-58.026667 73.386667-10.24c3.413333-0.853333 6.826667-3.413333 6.826667-6.826666l16.213333-71.68 59.733333-40.96c2.56-1.706667 4.266667-5.12 3.413334-8.533334L802.133333 713.386667l37.546667-63.146667c1.706667-3.413333 1.706667-6.826667-0.853333-9.386667zM599.04 98.133333h128.853333l-128 279.893334 12.8 12.8 133.973334-292.693334h56.32l-136.533334 298.666667h11.093334l-58.026667 0.853333-52.906667-50.346666c-0.853333-0.853333-2.56-1.706667-4.266666-1.706667l-28.16-58.88-12.8-26.453333 77.653333-162.133334z m-38.4 246.613334zM427.52 98.133333l119.466667 252.586667-46.08 22.186667-129.706667-274.773334h56.32z m-203.946667 0h128.853334l131.413333 276.48 8.533333 2.56-70.826666-22.186666c-3.413333-0.853333-6.826667 0-9.386667 2.56l-43.52 57.173333-145.066667-316.586667z m562.346667 609.28c-0.853333 1.706667-1.706667 4.266667-0.853333 5.973334l15.36 68.266666-57.173334 39.253334c-1.706667 0.853333-3.413333 3.413333-3.413333 5.12l-15.36 69.12-70.826667 9.386666c-2.56 0-4.266667 1.706667-5.973333 3.413334l-42.666667 56.32-68.266666-21.333334c-1.706667-0.853333-4.266667-0.853333-5.973334 0.853334l-63.146666 30.72-51.2-48.64c-1.706667-1.706667-3.413333-2.56-5.973334-2.56l-70.826666 0.853333-24.746667-65.706667c-0.853333-1.706667-2.56-3.413333-4.266667-4.266666L247.466667 822.613333l5.12-70.826666c0-1.706667-0.853333-4.266667-1.706667-5.973334L204.8 692.053333l35.84-60.586666c0.853333-1.706667 1.706667-4.266667 0.853333-5.973334l-15.36-68.266666 57.173334-39.253334c1.706667-0.853333 3.413333-3.413333 3.413333-5.12l15.36-69.12 70.826667-9.386666c2.56 0 4.266667-1.706667 5.973333-3.413334l42.666667-56.32 68.266666 21.333334c1.706667 0.853333 4.266667 0.853333 5.973334-0.853334l63.146666-30.72 51.2 48.64c1.706667 1.706667 3.413333 2.56 5.973334 2.56l70.826666-0.853333 24.746667 65.706667c0.853333 1.706667 2.56 3.413333 4.266667 4.266666l63.146666 31.573334-5.12 70.826666c0 1.706667 0.853333 4.266667 1.706667 5.973334l44.373333 54.613333-34.133333 59.733333z" p-id="1330"></path><path d="M513.706667 444.586667c-123.733333 0-225.28 100.693333-225.28 225.28s100.693333 225.28 225.28 225.28S738.133333 793.6 738.133333 669.013333 637.44 444.586667 513.706667 444.586667z m0 432.64c-114.346667 0-208.213333-93.013333-208.213334-208.213334S398.506667 460.8 513.706667 460.8s207.36 93.866667 207.36 208.213333-93.013333 208.213333-207.36 208.213334z" p-id="1331"></path><path d="M624.64 554.666667h-15.36c-56.32 0-81.92-25.6-81.92-25.6l-6.826667-6.826667c-1.706667-1.706667-3.413333-2.56-5.973333-2.56s-4.266667 0.853333-5.973333 2.56l-6.826667 6.826667c-0.853333 0.853333-0.853333 0.853333-0.853333 1.706666-2.56 2.56-28.16 26.453333-87.04 24.746667h-9.386667c-5.12 0-8.533333 3.413333-8.533333 8.533333V691.2c0 35.84 11.946667 87.893333 110.933333 125.44l2.56 0.853333c0.853333 0.853333 2.56 0.853333 3.413333 0.853334s2.56 0 3.413334-0.853334l4.266666-2.56C622.08 776.533333 633.173333 724.48 633.173333 688.64V563.2c0-5.12-3.413333-8.533333-8.533333-8.533333z m-8.533333 133.973333c0 30.72-10.24 75.093333-101.546667 110.08l-1.706667 0.853333c-89.6-34.133333-99.84-79.36-99.84-110.08V571.733333c63.146667 2.56 93.013333-23.04 98.986667-28.16l2.56-2.56c0.853333 0.853333 30.72 31.573333 93.866667 31.573334h6.826666v116.053333z" p-id="1332"></path><path d="M558.08 637.44L504.32 691.2l-35.84-34.133333c-3.413333-3.413333-8.533333-3.413333-11.946667 0-3.413333 3.413333-3.413333 8.533333 0 11.946666l41.813334 40.106667c1.706667 1.706667 3.413333 2.56 5.973333 2.56 2.56 0 4.266667-0.853333 5.973333-2.56l59.733334-59.733333c3.413333-3.413333 3.413333-8.533333 0-11.946667s-8.533333-3.413333-11.946667 0z" p-id="1333"></path></svg>