<?xml version="1.0" standalone="no"?><!DOCTYPE svg PUBLIC "-//W3C//DTD SVG 1.1//EN" "http://www.w3.org/Graphics/SVG/1.1/DTD/svg11.dtd"><svg t="1612871527291" class="icon" viewBox="0 0 1024 1024" version="1.1" xmlns="http://www.w3.org/2000/svg" p-id="2936" xmlns:xlink="http://www.w3.org/1999/xlink" width="200" height="200"><defs><style type="text/css"></style></defs><path d="M512 0C794.762378 0 1024 229.237622 1024 512S794.762378 1024 512 1024 0 794.762378 0 512 229.237622 0 512 0z m-108.654703 205.159784c-24.465297-4.151351-45.111351 4.179027-77.298162 25.046486l-9.160649 5.950271-8.385729 5.258378c-63.709405 39.410162-36.808649 201.617297 67.113513 353.778162 103.645405 151.718054 247.780324 240.501622 310.604108 201.755676 4.012973-2.463135 19.539027-11.540757 21.310271-12.620108 27.011459-16.051892 42.17773-29.114811 50.037621-48.017298 10.572108-25.323243 2.490811-53.690811-24.908108-85.711567-44.253405-51.753514-77.768649-63.986162-115.684324-46.661189a158.304865 158.304865 0 0 0-17.352649 9.326702l-16.771459 10.406054c-12.730811 7.832216-51.642811-29.419243-98.248649-97.473729-45.996973-67.307243-65.72973-115.767351-54.105946-122.990703 1.134703-0.719568 13.312-8.081297 16.77146-10.295351 47.657514-29.972757 55.794162-62.989838 18.764108-132.594163-17.491027-32.906378-38.275459-50.978595-62.685406-55.157621z" fill="#0056d2" p-id="2937"></path></svg>